<svg data-v-423bf9ae="" xmlns="http://www.w3.org/2000/svg" viewBox="0 0 435.49148286354773 60" class="font"><!----><!----><!----><g data-v-423bf9ae="" id="8386e099-a20b-40b5-8caa-6fdaae400e1e" fill="white" transform="matrix(7.863695819144356,0,0,7.863695819144356,-0.7077295274310416,-55.124509968896234)"><path d="M2.44 11.94L2.44 11.94L2.44 11.94Q2.39 12.21 2.34 12.83L2.34 12.83L2.34 12.83Q2.29 13.48 2.26 13.67L2.26 13.67L2.26 13.67Q2.11 14.27 1.83 14.44L1.83 14.44L1.83 14.44Q1.63 14.59 1.50 14.61L1.50 14.61L1.50 14.61Q1.37 14.63 1.25 14.63L1.25 14.63L1.25 14.63Q1.11 14.63 0.97 14.56L0.97 14.56L0.88 14.38L1.44 11.74L1.59 10.33L1.59 10.33Q1.61 10.04 1.61 9.80L1.61 9.80L1.61 9.80Q1.61 9.56 1.59 9.50L1.59 9.50L1.59 9.50Q1.56 9.42 1.52 9.38L1.52 9.38L1.52 9.38Q1.46 9.32 1.39 9.31L1.39 9.31L1.39 9.31Q1.31 9.29 1.18 9.38L1.18 9.38L1.18 9.38Q1.03 9.48 0.72 9.88L0.72 9.88L0.72 9.88Q0.45 10.28 0.42 10.37L0.42 10.37L0.09 10.12L0.09 10.12Q0.43 9.19 1.25 8.55L1.25 8.55L1.25 8.55Q1.50 8.37 1.67 8.31L1.67 8.31L2.00 8.25L2.00 8.25Q2.48 8.25 2.64 8.70L2.64 8.70L2.64 8.70Q2.69 8.82 2.69 9.03L2.69 9.03L2.69 9.15L2.69 9.15Q2.67 9.43 2.62 9.66L2.62 9.66L2.41 10.66L2.50 10.68L2.50 10.68Q2.60 10.34 2.74 10.00L2.74 10.00L2.74 10.00Q2.89 9.66 3.11 9.29L3.11 9.29L3.11 9.29Q3.32 8.93 3.62 8.70L3.62 8.70L3.62 8.70Q3.92 8.48 4.25 8.48L4.25 8.48L4.25 8.48Q4.62 8.48 4.84 8.73L4.84 8.73L4.84 8.73Q5.05 8.98 5.05 9.39L5.05 9.39L5.05 9.39Q5.05 9.86 4.74 10.22L4.74 10.22L4.74 10.22Q4.59 10.39 4.33 10.49L4.33 10.49L4.33 10.49Q4.31 10.46 4.24 10.32L4.24 10.32L4.24 10.32Q4.17 10.19 4.13 10.11L4.13 10.11L4.13 10.11Q4.08 10.04 4.01 9.94L4.01 9.94L4.01 9.94Q3.93 9.84 3.85 9.80L3.85 9.80L3.85 9.80Q3.76 9.75 3.66 9.75L3.66 9.75L3.66 9.75Q3.34 9.75 2.95 10.55L2.95 10.55L2.95 10.55Q2.56 11.35 2.44 11.94ZM8.17 9.63L8.17 9.63L8.17 9.63Q8.17 9.31 8.03 9.15L8.03 9.15L8.03 9.15Q7.90 8.99 7.62 9.00L7.62 9.00L7.62 9.00Q6.47 9.00 6.31 11.57L6.31 11.57L6.31 11.57Q8.17 10.88 8.17 9.63ZM8.91 8.59L8.91 8.59L8.91 8.59Q9.21 8.91 9.21 9.43L9.21 9.43L9.21 9.43Q9.21 10.42 8.20 11.14L8.20 11.14L8.20 11.14Q7.38 11.72 6.31 12.07L6.31 12.07L6.31 12.07Q6.35 13.69 7.42 13.69L7.42 13.69L7.42 13.69Q8.21 13.69 8.83 12.71L8.83 12.71L9.08 12.93L9.08 12.93Q8.85 13.61 8.24 14.12L8.24 14.12L8.24 14.12Q7.64 14.61 6.86 14.61L6.86 14.61L6.86 14.61Q6.09 14.61 5.65 14.01L5.65 14.01L5.65 14.01Q5.22 13.43 5.22 12.39L5.22 12.39L5.22 12.39Q5.22 11.37 5.61 10.43L5.61 10.43L5.61 10.43Q6.02 9.47 6.68 8.87L6.68 8.87L6.68 8.87Q7.35 8.26 8.07 8.26L8.07 8.26L8.07 8.26Q8.60 8.26 8.91 8.59ZM11.48 12.08L11.48 12.08L11.48 12.08Q10.59 11.35 10.34 10.94L10.34 10.94L10.34 10.94Q10.08 10.51 10.08 10.16L10.08 10.16L10.08 10.16Q10.08 9.37 10.68 8.82L10.68 8.82L10.68 8.82Q11.29 8.26 12.09 8.26L12.09 8.26L12.09 8.26Q12.66 8.26 13.02 8.50L13.02 8.50L13.02 8.50Q13.37 8.73 13.37 9.10L13.37 9.10L13.37 9.10Q13.37 9.69 12.71 9.97L12.71 9.97L12.71 9.97Q12.45 9.43 12.15 9.16L12.15 9.16L12.15 9.16Q11.85 8.89 11.60 8.89L11.60 8.89L11.60 8.89Q11.36 8.89 11.16 9.08L11.16 9.08L11.16 9.08Q10.94 9.29 10.94 9.57L10.94 9.57L10.94 9.57Q10.94 10.03 11.76 10.73L11.76 10.73L11.95 10.89L11.95 10.89Q12.14 11.05 12.15 11.07L12.15 11.07L12.15 11.07Q12.17 11.09 12.34 11.24L12.34 11.24L12.34 11.24Q12.49 11.38 12.53 11.42L12.53 11.42L12.53 11.42Q12.55 11.45 12.61 11.51L12.61 11.51L12.61 11.51Q12.67 11.57 12.71 11.61L12.71 11.61L12.71 11.61Q13.27 12.22 13.25 12.76L13.25 12.76L13.25 12.76Q13.24 13.31 12.92 13.73L12.92 13.73L12.92 13.73Q12.59 14.14 12.04 14.39L12.04 14.39L12.04 14.39Q11.49 14.64 10.88 14.64L10.88 14.64L10.88 14.64Q10.27 14.64 9.84 14.36L9.84 14.36L9.84 14.36Q9.43 14.08 9.43 13.72L9.43 13.72L9.43 13.72Q9.43 13.36 9.65 13.10L9.65 13.10L9.65 13.10Q9.88 12.84 10.21 12.80L10.21 12.80L10.21 12.80Q10.36 13.26 10.68 13.64L10.68 13.64L10.68 13.64Q10.99 14.01 11.38 14.01L11.38 14.01L11.38 14.01Q11.76 14.01 12.00 13.80L12.00 13.80L12.00 13.80Q12.25 13.60 12.25 13.23L12.25 13.23L12.25 13.23Q12.23 12.72 11.48 12.08ZM15.13 13.36L15.13 13.36L15.13 13.36Q15.44 13.36 15.70 13.06L15.70 13.06L15.70 13.06Q15.96 12.76 16.54 11.71L16.54 11.71L16.88 11.97L16.88 11.97Q16.56 13.19 15.96 13.86L15.96 13.86L15.96 13.86Q15.35 14.55 14.59 14.55L14.59 14.55L14.59 14.55Q14.16 14.55 13.98 14.34L13.98 14.34L13.98 14.34Q13.80 14.14 13.80 13.69L13.80 13.69L13.80 13.69Q13.80 13.23 13.95 11.98L13.95 11.98L14.36 9.16L13.59 9.21L13.76 8.49L14.42 8.55L14.56 7.14L15.60 7.01L15.67 7.10L15.45 8.55L17.04 8.44L16.86 9.24L15.37 9.16L15.07 11.72L15.07 11.72Q14.95 12.87 14.95 13.05L14.95 13.05L14.95 13.05Q14.95 13.22 14.99 13.30L14.99 13.30L14.99 13.30Q15.03 13.36 15.13 13.36ZM18.31 12.43L18.31 12.43L18.31 12.43Q18.31 13.04 18.40 13.26L18.40 13.26L18.40 13.26Q18.49 13.49 18.75 13.49L18.75 13.49L18.75 13.49Q19.24 13.49 19.89 12.45L19.89 12.45L19.89 12.45Q20.54 11.41 20.80 9.88L20.80 9.88L20.80 9.88Q20.70 9.60 20.40 9.37L20.40 9.37L20.40 9.37Q20.10 9.13 19.77 9.13L19.77 9.13L19.77 9.13Q19.45 9.13 19.14 9.46L19.14 9.46L19.14 9.46Q18.84 9.78 18.66 10.33L18.66 10.33L18.66 10.33Q18.31 11.39 18.31 12.43ZM21.14 8.18L21.21 8.12L22.03 8.37L21.53 11.04L21.33 12.67L21.33 12.67Q21.28 13.04 21.28 13.25L21.28 13.25L21.28 13.25Q21.28 13.60 21.58 13.60L21.58 13.60L21.58 13.60Q21.77 13.60 22.07 13.26L22.07 13.26L22.07 13.26Q22.40 12.91 22.63 12.52L22.63 12.52L22.91 12.76L22.91 12.76Q22.52 13.71 22.08 14.16L22.08 14.16L22.08 14.16Q21.63 14.61 20.91 14.61L20.91 14.61L20.91 14.61Q20.58 14.61 20.38 14.36L20.38 14.36L20.38 14.36Q20.21 14.12 20.21 13.62L20.21 13.62L20.21 13.62Q20.21 13.13 20.45 12.43L20.45 12.43L20.36 12.43L20.36 12.43Q20.01 13.29 19.42 13.92L19.42 13.92L19.42 13.92Q18.84 14.54 18.27 14.54L18.27 14.54L18.27 14.54Q17.71 14.54 17.48 14.12L17.48 14.12L17.48 14.12Q17.25 13.70 17.25 12.86L17.25 12.86L17.25 12.86Q17.25 12.01 17.64 10.94L17.64 10.94L17.64 10.94Q18.04 9.86 18.69 9.07L18.69 9.07L18.69 9.07Q19.34 8.28 20.00 8.28L20.00 8.28L20.00 8.28Q20.64 8.28 20.98 8.79L20.98 8.79L21.04 8.79L21.14 8.18ZM27.31 10.79L27.31 10.79L27.31 10.79Q27.33 9.34 27.56 8.80L27.56 8.80L27.56 8.80Q27.79 8.25 28.38 8.25L28.38 8.25L28.38 8.25Q28.55 8.25 28.66 8.28L28.66 8.28L28.77 8.47L28.29 11.09L28.18 12.46L28.18 12.46Q28.12 13.02 28.13 13.18L28.13 13.18L28.13 13.18Q28.14 13.41 28.19 13.47L28.19 13.47L28.19 13.47Q28.25 13.56 28.42 13.56L28.42 13.56L28.42 13.56Q28.57 13.56 28.90 13.23L28.90 13.23L28.90 13.23Q29.21 12.92 29.42 12.55L29.42 12.55L29.70 12.74L29.70 12.74Q29.16 14.57 27.68 14.56L27.68 14.56L27.68 14.56Q27.08 14.56 27.07 13.73L27.07 13.73L27.07 13.73Q27.07 13.30 27.26 12.60L27.26 12.60L27.19 12.58L27.19 12.58Q26.85 13.51 26.34 14.05L26.34 14.05L26.34 14.05Q25.83 14.57 25.29 14.57L25.29 14.57L25.29 14.57Q24.73 14.57 24.47 14.29L24.47 14.29L24.47 14.29Q24.20 14 24.20 13.51L24.20 13.51L24.20 13.51Q24.20 13.02 24.26 12.65L24.26 12.65L24.62 10.28L24.62 10.28Q24.67 9.93 24.66 9.78L24.66 9.78L24.66 9.78Q24.66 9.36 24.43 9.35L24.43 9.35L24.43 9.35Q24.11 9.35 23.45 10.35L23.45 10.35L23.13 10.14L23.13 10.14Q23.42 9.37 24.00 8.80L24.00 8.80L24.00 8.80Q24.58 8.25 25.14 8.25L25.14 8.25L25.14 8.25Q25.80 8.25 25.79 9.13L25.79 9.13L25.79 9.13Q25.79 9.47 25.61 10.56L25.61 10.56L25.42 11.76L25.42 11.76Q25.33 12.35 25.33 12.73L25.33 12.73L25.33 12.73Q25.35 13.15 25.42 13.25L25.42 13.25L25.42 13.25Q25.49 13.37 25.70 13.37L25.70 13.37L25.70 13.37Q26.20 13.37 26.59 12.78L26.59 12.78L26.59 12.78Q27.00 12.17 27.31 10.79ZM32.27 11.94L32.27 11.94L32.27 11.94Q32.21 12.21 32.16 12.83L32.16 12.83L32.16 12.83Q32.12 13.48 32.08 13.67L32.08 13.67L32.08 13.67Q31.93 14.27 31.66 14.44L31.66 14.44L31.66 14.44Q31.45 14.59 31.33 14.61L31.33 14.61L31.33 14.61Q31.19 14.63 31.08 14.63L31.08 14.63L31.08 14.63Q30.94 14.63 30.80 14.56L30.80 14.56L30.70 14.38L31.26 11.74L31.41 10.33L31.41 10.33Q31.43 10.04 31.43 9.80L31.43 9.80L31.43 9.80Q31.43 9.56 31.41 9.50L31.41 9.50L31.41 9.50Q31.38 9.42 31.34 9.38L31.34 9.38L31.34 9.38Q31.28 9.32 31.22 9.31L31.22 9.31L31.22 9.31Q31.13 9.29 31.00 9.38L31.00 9.38L31.00 9.38Q30.86 9.48 30.55 9.88L30.55 9.88L30.55 9.88Q30.28 10.28 30.24 10.37L30.24 10.37L29.91 10.12L29.91 10.12Q30.26 9.19 31.08 8.55L31.08 8.55L31.08 8.55Q31.33 8.37 31.50 8.31L31.50 8.31L31.82 8.25L31.82 8.25Q32.31 8.25 32.46 8.70L32.46 8.70L32.46 8.70Q32.51 8.82 32.51 9.03L32.51 9.03L32.51 9.15L32.51 9.15Q32.49 9.43 32.44 9.66L32.44 9.66L32.24 10.66L32.32 10.68L32.32 10.68Q32.42 10.34 32.57 10.00L32.57 10.00L32.57 10.00Q32.72 9.66 32.93 9.29L32.93 9.29L32.93 9.29Q33.15 8.93 33.45 8.70L33.45 8.70L33.45 8.70Q33.75 8.48 34.07 8.48L34.07 8.48L34.07 8.48Q34.45 8.48 34.66 8.73L34.66 8.73L34.66 8.73Q34.88 8.98 34.88 9.39L34.88 9.39L34.88 9.39Q34.88 9.86 34.56 10.22L34.56 10.22L34.56 10.22Q34.41 10.39 34.15 10.49L34.15 10.49L34.15 10.49Q34.13 10.46 34.06 10.32L34.06 10.32L34.06 10.32Q34.00 10.19 33.95 10.11L33.95 10.11L33.95 10.11Q33.91 10.04 33.83 9.94L33.83 9.94L33.83 9.94Q33.76 9.84 33.67 9.80L33.67 9.80L33.67 9.80Q33.58 9.75 33.49 9.75L33.49 9.75L33.49 9.75Q33.17 9.75 32.77 10.55L32.77 10.55L32.77 10.55Q32.38 11.35 32.27 11.94ZM36.09 12.43L36.09 12.43L36.09 12.43Q36.09 13.04 36.18 13.26L36.18 13.26L36.18 13.26Q36.27 13.49 36.53 13.49L36.53 13.49L36.53 13.49Q37.02 13.49 37.67 12.45L37.67 12.45L37.67 12.45Q38.32 11.41 38.58 9.88L38.58 9.88L38.58 9.88Q38.48 9.60 38.18 9.37L38.18 9.37L38.18 9.37Q37.88 9.13 37.55 9.13L37.55 9.13L37.55 9.13Q37.23 9.13 36.92 9.46L36.92 9.46L36.92 9.46Q36.62 9.78 36.44 10.33L36.44 10.33L36.44 10.33Q36.09 11.39 36.09 12.43ZM38.92 8.18L38.99 8.12L39.81 8.37L39.31 11.04L39.11 12.67L39.11 12.67Q39.06 13.04 39.06 13.25L39.06 13.25L39.06 13.25Q39.06 13.60 39.36 13.60L39.36 13.60L39.36 13.60Q39.55 13.60 39.85 13.26L39.85 13.26L39.85 13.26Q40.18 12.91 40.41 12.52L40.41 12.52L40.69 12.76L40.69 12.76Q40.30 13.71 39.86 14.16L39.86 14.16L39.86 14.16Q39.41 14.61 38.69 14.61L38.69 14.61L38.69 14.61Q38.36 14.61 38.17 14.36L38.17 14.36L38.17 14.36Q37.99 14.12 37.99 13.62L37.99 13.62L37.99 13.62Q37.99 13.13 38.23 12.43L38.23 12.43L38.14 12.43L38.14 12.43Q37.79 13.29 37.20 13.92L37.20 13.92L37.20 13.92Q36.62 14.54 36.05 14.54L36.05 14.54L36.05 14.54Q35.49 14.54 35.26 14.12L35.26 14.12L35.26 14.12Q35.03 13.70 35.03 12.86L35.03 12.86L35.03 12.86Q35.03 12.01 35.42 10.94L35.42 10.94L35.42 10.94Q35.82 9.86 36.47 9.07L36.47 9.07L36.47 9.07Q37.12 8.28 37.78 8.28L37.78 8.28L37.78 8.28Q38.42 8.28 38.76 8.79L38.76 8.79L38.82 8.79L38.92 8.18ZM43.24 12.04L43.24 12.04L43.24 12.04Q43.20 13.47 42.94 14.01L42.94 14.01L42.94 14.01Q42.68 14.59 42.08 14.59L42.08 14.59L42.08 14.59Q42.03 14.59 41.79 14.56L41.79 14.56L41.69 14.38L42.25 11.74L42.40 10.16L42.40 10.16Q42.42 9.87 42.42 9.64L42.42 9.64L42.42 9.64Q42.42 9.39 42.36 9.26L42.36 9.26L42.36 9.26Q42.30 9.14 42.17 9.15L42.17 9.15L42.17 9.15Q42.05 9.15 41.75 9.49L41.75 9.49L41.75 9.49Q41.45 9.83 41.23 10.21L41.23 10.21L40.91 9.95L40.91 9.95Q41.17 9.22 41.77 8.65L41.77 8.65L41.77 8.65Q42.35 8.09 42.96 8.09L42.96 8.09L42.96 8.09Q43.50 8.09 43.48 8.80L43.48 8.80L43.48 8.80Q43.48 9.13 43.39 9.52L43.39 9.52L43.39 9.52Q43.33 9.81 43.27 10.11L43.27 10.11L43.27 10.11Q43.19 10.47 43.20 10.48L43.20 10.48L43.28 10.52L43.28 10.52Q43.59 9.58 44.19 8.92L44.19 8.92L44.19 8.92Q44.80 8.26 45.34 8.26L45.34 8.26L45.34 8.26Q45.89 8.26 46.16 8.54L46.16 8.54L46.16 8.54Q46.42 8.82 46.42 9.27L46.42 9.27L46.42 9.27Q46.42 9.71 46.36 10.19L46.36 10.19L46.06 12.67L46.06 12.67Q46.03 12.91 46.03 13.16L46.03 13.16L46.03 13.16Q46.03 13.57 46.26 13.57L46.26 13.57L46.26 13.57Q46.48 13.57 46.82 13.33L46.82 13.33L46.82 13.33Q47.15 13.10 47.35 12.71L47.35 12.71L47.65 12.92L47.65 12.92Q47.03 14.56 45.57 14.56L45.57 14.56L45.57 14.56Q44.90 14.56 44.90 13.71L44.90 13.71L44.90 13.71Q44.90 13.59 45.04 12.38L45.04 12.38L45.20 11.06L45.20 11.06Q45.29 10.34 45.30 9.96L45.30 9.96L45.30 9.96Q45.30 9.71 45.21 9.58L45.21 9.58L45.21 9.58Q45.11 9.46 44.92 9.47L44.92 9.47L44.92 9.47Q43.85 9.47 43.24 12.04ZM49.40 13.36L49.40 13.36L49.40 13.36Q49.72 13.36 49.98 13.06L49.98 13.06L49.98 13.06Q50.23 12.76 50.82 11.71L50.82 11.71L51.15 11.97L51.15 11.97Q50.83 13.19 50.24 13.86L50.24 13.86L50.24 13.86Q49.63 14.55 48.87 14.55L48.87 14.55L48.87 14.55Q48.44 14.55 48.25 14.34L48.25 14.34L48.25 14.34Q48.08 14.14 48.08 13.69L48.08 13.69L48.08 13.69Q48.08 13.23 48.23 11.98L48.23 11.98L48.63 9.16L47.87 9.21L48.04 8.49L48.70 8.55L48.84 7.14L49.88 7.01L49.95 7.10L49.72 8.55L51.31 8.44L51.13 9.24L49.65 9.16L49.35 11.72L49.35 11.72Q49.23 12.87 49.23 13.05L49.23 13.05L49.23 13.05Q49.23 13.22 49.27 13.30L49.27 13.30L49.27 13.30Q49.31 13.36 49.40 13.36ZM53.58 12.08L53.58 12.08L53.58 12.08Q52.69 11.35 52.44 10.94L52.44 10.94L52.44 10.94Q52.18 10.51 52.18 10.16L52.18 10.16L52.18 10.16Q52.18 9.37 52.79 8.82L52.79 8.82L52.79 8.82Q53.39 8.26 54.20 8.26L54.20 8.26L54.20 8.26Q54.76 8.26 55.12 8.50L55.12 8.50L55.12 8.50Q55.47 8.73 55.47 9.10L55.47 9.10L55.47 9.10Q55.47 9.69 54.82 9.97L54.82 9.97L54.82 9.97Q54.55 9.43 54.25 9.16L54.25 9.16L54.25 9.16Q53.95 8.89 53.70 8.89L53.70 8.89L53.70 8.89Q53.46 8.89 53.26 9.08L53.26 9.08L53.26 9.08Q53.05 9.29 53.05 9.57L53.05 9.57L53.05 9.57Q53.05 10.03 53.86 10.73L53.86 10.73L54.05 10.89L54.05 10.89Q54.24 11.05 54.26 11.07L54.26 11.07L54.26 11.07Q54.28 11.09 54.44 11.24L54.44 11.24L54.44 11.24Q54.59 11.38 54.63 11.42L54.63 11.42L54.63 11.42Q54.65 11.45 54.71 11.51L54.71 11.51L54.71 11.51Q54.78 11.57 54.81 11.61L54.81 11.61L54.81 11.61Q55.37 12.22 55.36 12.76L55.36 12.76L55.36 12.76Q55.34 13.31 55.02 13.73L55.02 13.73L55.02 13.73Q54.69 14.14 54.15 14.39L54.15 14.39L54.15 14.39Q53.59 14.64 52.98 14.64L52.98 14.64L52.98 14.64Q52.37 14.64 51.95 14.36L51.95 14.36L51.95 14.36Q51.53 14.08 51.53 13.72L51.53 13.72L51.53 13.72Q51.53 13.36 51.75 13.10L51.75 13.10L51.75 13.10Q51.99 12.84 52.32 12.80L52.32 12.80L52.32 12.80Q52.46 13.26 52.78 13.64L52.78 13.64L52.78 13.64Q53.09 14.01 53.48 14.01L53.48 14.01L53.48 14.01Q53.86 14.01 54.11 13.80L54.11 13.80L54.11 13.80Q54.35 13.60 54.35 13.23L54.35 13.23L54.35 13.23Q54.33 12.72 53.58 12.08Z"></path></g><!----><!----></svg>